<svg xmlns="http://www.w3.org/2000/svg" width="108" height="114" viewBox="0 0 108 114" fill="none">
  <path d="M15.9298 65.0544C27.5605 82.9001 50.812 99.5791 76.7149 94.9274C77.4209 94.8036 77.8551 94.1181 77.8212 93.5204C77.3861 87.1541 73.3204 81.5347 69.5853 76.6466C65.1308 70.7993 60.1758 65.7885 53.5696 61.8739C47.4818 58.2631 41.1271 56.3068 33.5013 55.8968C29.6846 55.6837 25.8073 55.7773 21.9423 55.9441C20.2179 56.0259 18.4747 56.1168 16.7392 56.2237C15.5217 56.2979 14.0892 56.1195 12.9421 56.6747C12.2651 57.0023 12.039 57.6862 12.2577 58.2341C13.1661 60.6867 14.7471 62.7543 15.9298 65.0544C16.5888 66.3202 18.9473 65.1986 18.2805 63.9167C17.0978 61.6167 15.5168 59.549 14.5974 57.1216C14.3656 57.6498 14.1338 58.1779 13.913 58.681C14.6841 58.3078 16.8737 58.516 17.8455 58.4617C19.4714 58.3681 21.105 58.2907 22.7199 58.2223C26.203 58.0818 29.6985 58.0145 33.1367 58.2127C40.4824 58.6196 46.5117 60.5749 52.3636 64.0819C58.4747 67.7409 63.0241 72.3933 67.1892 77.7864C70.8233 82.4658 74.8645 87.9387 75.2893 94.092C75.6618 93.6146 76.0232 93.1624 76.3956 92.685C63.9216 94.9184 52.0208 91.5258 42.2127 86.0309C32.439 80.5589 24.1325 72.8912 18.2728 63.9007C17.4976 62.7306 15.1391 63.8522 15.9298 65.0544Z" fill="#DDDDDD"/>
  <path d="M15.4087 59.8988C27.0904 64.2295 38.0011 69.8445 48.3635 76.1013C52.8242 78.7959 57.4296 81.262 61.9909 83.8287C66.7504 86.5173 71.5545 89.4419 74.7331 93.7078C75.5912 94.8575 77.6104 93.2266 76.7523 92.0769C73.6779 87.9784 69.1195 85.034 64.5537 82.41C59.6945 79.6112 54.7203 77.0066 49.9318 74.1141C39.3788 67.7515 28.2899 62.1038 16.4066 57.6924C14.9393 57.1545 13.9758 59.3839 15.4087 59.8988Z" fill="#DDDDDD"/>
  <path d="M69.0842 90.6166C56.4908 86.6083 43.5246 82.7409 33.2181 75.209C32.0305 74.3377 30.4888 76.3318 31.6765 77.2031C42.1281 84.843 55.3146 88.7821 68.094 92.8391C69.5756 93.3106 70.547 91.0973 69.0842 90.6166Z" fill="#DDDDDD"/>
  <path d="M59.1159 73.5711C53.3061 69.1919 46.4301 66.3984 39.4192 63.7098C37.9895 63.1537 37.026 65.3831 38.4478 65.9231C45.2915 68.554 51.9361 71.301 57.593 75.5562C58.7508 76.4618 60.2847 74.4516 59.1159 73.5711Z" fill="#DDDDDD"/>
  <path d="M32.5324 70.5876C30.0496 68.7186 27.8432 66.5575 25.1437 64.9122C24.6098 64.5764 23.7688 64.805 23.3555 65.3418C22.9234 65.8877 23.0571 66.5956 23.6098 66.9224C26.3093 68.5676 28.5157 70.7288 30.9985 72.5977C31.5026 72.9679 32.4032 72.6707 32.7867 72.1681C33.2221 71.581 33.0176 70.9668 32.5324 70.5876Z" fill="#DDDDDD"/>
  <path d="M12.3005 36.6994C32.3529 46.8641 62.6765 51.107 84.9712 36.5536C85.6093 36.1457 85.5088 35.3623 85.2005 34.9172C81.537 29.6974 74.6729 26.6406 68.6096 24.0877C61.9074 21.2695 55.226 19.2138 47.5634 18.5838C39.8743 17.9469 32.7514 18.7198 25.146 21.4693C21.2361 22.8862 17.4361 24.6261 13.6749 26.4464C12.0012 27.2564 10.3165 28.0915 8.65052 28.9176C7.47353 29.507 6.01853 29.9537 5.17186 30.9379C4.84358 31.3147 4.79575 32.0311 5.178 32.3414C7.32637 34.0948 9.93221 35.2109 12.3005 36.6994C13.5667 37.4932 15.1083 35.4991 13.8422 34.7053C11.6644 33.3227 9.1771 32.3077 7.17836 30.7196C7.17672 31.1958 7.18613 31.6469 7.1845 32.1231C7.72169 31.5066 10.0916 30.6964 11.0131 30.2504C12.585 29.4699 14.1569 28.6893 15.7444 27.9409C19.1372 26.3187 22.5688 24.7768 26.106 23.5008C33.376 20.8738 40.2745 20.3086 47.5928 20.9467C54.8924 21.5939 61.2749 23.6556 67.6505 26.3743C73.3528 28.8048 79.7341 31.6792 83.1703 36.5733C83.2504 36.0195 83.3195 35.4908 83.3996 34.9369C72.6726 41.931 59.6549 43.9522 47.5926 43.3913C35.5756 42.8282 23.88 39.8117 13.85 34.7214C12.4943 34.0304 10.9526 36.0245 12.3005 36.6994Z" fill="#DDDDDD"/>
  <path d="M8.9017 32.6012C22.5613 31.3788 36.0798 31.5916 49.4344 32.6166C54.9339 33.0454 60.4861 33.1515 66.0064 33.4316C71.5533 33.7186 77.303 34.1848 82.1615 36.3105C83.5425 36.91 85.0919 34.9319 83.7031 34.3164C74.1612 30.1388 62.2869 31.3093 51.6134 30.4527C37.6709 29.316 23.5269 29.0098 9.24754 30.2944C7.62615 30.4452 7.28031 32.752 8.9017 32.6012Z" fill="#DDDDDD"/>
  <path d="M75.43 36.1613C61.5963 37.983 47.422 40.1082 34.002 38.0848C32.4477 37.8465 31.4575 40.0689 33.0307 40.2981C46.9057 42.3985 61.432 40.2812 75.7493 38.4037C77.385 38.1866 77.0469 35.9533 75.43 36.1613Z" fill="#DDDDDD"/>
  <path d="M57.7425 26.0395C50.0227 24.7637 42.139 25.2115 34.1138 25.8465C32.4847 25.9812 32.1388 28.288 33.768 28.1533C41.5475 27.5381 49.264 27.0327 56.7712 28.2529C58.3333 28.5072 59.3047 26.2938 57.7425 26.0395Z" fill="#DDDDDD"/>
  <path d="M31.0267 34.4887C27.6257 33.9357 24.3527 33.0237 20.8569 32.7544C20.2093 32.7112 19.4938 33.2952 19.4105 33.8902C19.3393 34.5585 19.8103 35.0041 20.4922 35.0703C21.3556 35.1279 21.9999 35.2123 22.7771 35.3314C23.6074 35.4644 24.4267 35.6226 25.246 35.7808C26.8392 36.0993 28.4025 36.452 30.0178 36.7202C30.651 36.8298 31.4311 36.5711 31.6727 35.9193C31.9343 35.3569 31.7131 34.6121 31.0267 34.4887Z" fill="#DDDDDD"/>
</svg>